<mxfile host="app.diagrams.net" modified="2024-09-18T03:19:04.972Z" agent="Mozilla/5.0 (Macintosh; Intel Mac OS X 10_15_7) AppleWebKit/537.36 (KHTML, like Gecko) Chrome/128.0.0.0 Safari/537.36 Edg/128.0.0.0" etag="dUM087-Qxu1wwZSmdwAf" version="24.6.4" type="github">
  <diagram name="第 1 页" id="hNco9j2flbYO6hEa0dm7">
    <mxGraphModel dx="622" dy="468" grid="0" gridSize="10" guides="1" tooltips="1" connect="1" arrows="1" fold="1" page="1" pageScale="1" pageWidth="827" pageHeight="1169" math="0" shadow="0">
      <root>
        <mxCell id="0" />
        <mxCell id="1" parent="0" />
        <mxCell id="aktz2uFzDoBPWF3I8BD6-1" value="Process 1&lt;div&gt;Task 1&lt;/div&gt;&lt;div&gt;(1, 0, 7, 2)&lt;/div&gt;" style="rounded=1;whiteSpace=wrap;html=1;fontFamily=Times New Roman;fillColor=#f8cecc;strokeColor=#b85450;" vertex="1" parent="1">
          <mxGeometry x="100" y="170" width="70" height="60" as="geometry" />
        </mxCell>
        <mxCell id="aktz2uFzDoBPWF3I8BD6-2" value="Process 1&lt;div&gt;Task 2&lt;/div&gt;&lt;div&gt;(2, 0, 5, 2)&lt;/div&gt;" style="rounded=1;whiteSpace=wrap;html=1;fontFamily=Times New Roman;fillColor=#f8cecc;strokeColor=#b85450;" vertex="1" parent="1">
          <mxGeometry x="203" y="125" width="70" height="60" as="geometry" />
        </mxCell>
        <mxCell id="aktz2uFzDoBPWF3I8BD6-6" value="Process 1&lt;div&gt;Task 3&lt;/div&gt;&lt;div&gt;(2, 0, 5, 1)&lt;/div&gt;" style="rounded=1;whiteSpace=wrap;html=1;fontFamily=Times New Roman;fillColor=#f8cecc;strokeColor=#b85450;" vertex="1" parent="1">
          <mxGeometry x="203" y="212" width="70" height="60" as="geometry" />
        </mxCell>
        <mxCell id="aktz2uFzDoBPWF3I8BD6-7" value="" style="endArrow=classic;html=1;rounded=0;exitX=1;exitY=0.5;exitDx=0;exitDy=0;entryX=0;entryY=0.5;entryDx=0;entryDy=0;" edge="1" parent="1" source="aktz2uFzDoBPWF3I8BD6-1" target="aktz2uFzDoBPWF3I8BD6-2">
          <mxGeometry width="50" height="50" relative="1" as="geometry">
            <mxPoint x="255" y="253" as="sourcePoint" />
            <mxPoint x="305" y="203" as="targetPoint" />
          </mxGeometry>
        </mxCell>
        <mxCell id="aktz2uFzDoBPWF3I8BD6-8" value="" style="endArrow=classic;html=1;rounded=0;entryX=0;entryY=0.5;entryDx=0;entryDy=0;" edge="1" parent="1" target="aktz2uFzDoBPWF3I8BD6-6">
          <mxGeometry width="50" height="50" relative="1" as="geometry">
            <mxPoint x="170" y="199" as="sourcePoint" />
            <mxPoint x="213" y="165" as="targetPoint" />
          </mxGeometry>
        </mxCell>
        <mxCell id="aktz2uFzDoBPWF3I8BD6-9" value="Process 3&lt;div&gt;Task 3&lt;/div&gt;&lt;div&gt;(2, 1, 10, 3)&lt;/div&gt;" style="rounded=1;whiteSpace=wrap;html=1;fontFamily=Times New Roman;fillColor=#dae8fc;strokeColor=#6c8ebf;" vertex="1" parent="1">
          <mxGeometry x="567" y="170" width="70" height="60" as="geometry" />
        </mxCell>
        <mxCell id="aktz2uFzDoBPWF3I8BD6-10" value="Process 3&lt;div&gt;Task 1&lt;/div&gt;&lt;div&gt;(2, 4, 10, 2)&lt;/div&gt;" style="rounded=1;whiteSpace=wrap;html=1;fontFamily=Times New Roman;fillColor=#dae8fc;strokeColor=#6c8ebf;" vertex="1" parent="1">
          <mxGeometry x="467" y="125" width="70" height="60" as="geometry" />
        </mxCell>
        <mxCell id="aktz2uFzDoBPWF3I8BD6-11" value="Process 3&lt;div&gt;Task 2&lt;/div&gt;&lt;div&gt;(2, 5, 11, 2)&lt;/div&gt;" style="rounded=1;whiteSpace=wrap;html=1;fontFamily=Times New Roman;fillColor=#dae8fc;strokeColor=#6c8ebf;" vertex="1" parent="1">
          <mxGeometry x="467" y="212" width="70" height="60" as="geometry" />
        </mxCell>
        <mxCell id="aktz2uFzDoBPWF3I8BD6-13" value="" style="endArrow=classic;html=1;rounded=0;entryX=0;entryY=0.5;entryDx=0;entryDy=0;exitX=1;exitY=0.5;exitDx=0;exitDy=0;" edge="1" parent="1" target="aktz2uFzDoBPWF3I8BD6-9" source="aktz2uFzDoBPWF3I8BD6-11">
          <mxGeometry width="50" height="50" relative="1" as="geometry">
            <mxPoint x="434" y="199" as="sourcePoint" />
            <mxPoint x="477" y="165" as="targetPoint" />
          </mxGeometry>
        </mxCell>
        <mxCell id="aktz2uFzDoBPWF3I8BD6-14" value="" style="endArrow=classic;html=1;rounded=0;exitX=1;exitY=0.5;exitDx=0;exitDy=0;entryX=0;entryY=0.5;entryDx=0;entryDy=0;" edge="1" parent="1" source="aktz2uFzDoBPWF3I8BD6-10" target="aktz2uFzDoBPWF3I8BD6-9">
          <mxGeometry width="50" height="50" relative="1" as="geometry">
            <mxPoint x="456" y="316" as="sourcePoint" />
            <mxPoint x="506" y="266" as="targetPoint" />
          </mxGeometry>
        </mxCell>
        <mxCell id="aktz2uFzDoBPWF3I8BD6-17" style="edgeStyle=orthogonalEdgeStyle;rounded=0;orthogonalLoop=1;jettySize=auto;html=1;exitX=1;exitY=0.5;exitDx=0;exitDy=0;entryX=0;entryY=0.5;entryDx=0;entryDy=0;" edge="1" parent="1" source="aktz2uFzDoBPWF3I8BD6-15" target="aktz2uFzDoBPWF3I8BD6-16">
          <mxGeometry relative="1" as="geometry" />
        </mxCell>
        <mxCell id="aktz2uFzDoBPWF3I8BD6-15" value="Process 2&lt;div&gt;Task 1&lt;/div&gt;&lt;div&gt;(1, 3, 5, 3)&lt;/div&gt;" style="rounded=1;whiteSpace=wrap;html=1;fontFamily=Times New Roman;fillColor=#fff2cc;strokeColor=#d6b656;" vertex="1" parent="1">
          <mxGeometry x="288" y="170" width="70" height="60" as="geometry" />
        </mxCell>
        <mxCell id="aktz2uFzDoBPWF3I8BD6-16" value="Process 2&lt;div&gt;Task 2&lt;/div&gt;&lt;div&gt;(4, 1, 8, 1)&lt;/div&gt;" style="rounded=1;whiteSpace=wrap;html=1;fontFamily=Times New Roman;fillColor=#fff2cc;strokeColor=#d6b656;" vertex="1" parent="1">
          <mxGeometry x="384" y="170" width="70" height="60" as="geometry" />
        </mxCell>
      </root>
    </mxGraphModel>
  </diagram>
</mxfile>
